<svg xmlns="http://www.w3.org/2000/svg" viewBox="0 0 64 64" role="img" aria-label="Plateforme interactif icon">
  <defs>
    <linearGradient id="bg" x1="0" y1="0" x2="1" y2="1">
      <stop offset="0%" stop-color="#0f172a" />
      <stop offset="100%" stop-color="#0f766e" />
    </linearGradient>
    <linearGradient id="node" x1="0" y1="0" x2="1" y2="1">
      <stop offset="0%" stop-color="#2dd4bf" />
      <stop offset="100%" stop-color="#14b8a6" />
    </linearGradient>
  </defs>
  <rect x="4" y="4" width="56" height="56" rx="14" fill="url(#bg)" />
  <path d="M22 22h20a6 6 0 0 1 6 6v10a6 6 0 0 1-6 6H31l-8 6v-6h-1a6 6 0 0 1-6-6V28a6 6 0 0 1 6-6z" fill="#ffffff" fill-opacity="0.96"/>
  <circle cx="24" cy="32" r="3" fill="url(#node)"/>
  <circle cx="32" cy="36" r="3" fill="url(#node)"/>
  <circle cx="40" cy="32" r="3" fill="url(#node)"/>
  <path d="M27 33.5l2.5 1.5M34.5 35l2.5-1.5" stroke="#0f766e" stroke-width="2" stroke-linecap="round"/>
</svg>
